<?xml version="1.0" encoding="utf-8"?>
<svg version="1.1" id="Layer_1" xmlns="http://www.w3.org/2000/svg" xmlns:xlink="http://www.w3.org/1999/xlink" x="0px" y="0px"
	 viewBox="0 0 300 300" style="enable-background:new 0 0 300 300;" xml:space="preserve">
<g>
	<path d="M125.38525,169.03671c-1.65878-1.5683-3.01597-3.00842-4.54656-4.24496c-2.20164-1.7794-4.50132-3.4382-6.81606-5.07434
		c-0.61074-0.42224-0.82186-0.82185-0.81432-1.53815c0.02264-6.69542,0.00756-13.39838,0.03017-20.09381
		c0-0.73891-0.12817-1.05557-0.9802-1.05557c-14.51429,0.0226-29.02858,0.01506-43.53533,0.01506h-0.85957
		c-0.02261,0.42978-0.06032,0.79922-0.06032,1.16869c0,4.93863-0.01507,9.8848,0.01508,14.83098
		c0.00756,0.90479-0.28651,1.24408-1.47781,1.50798c-3.44574,0.754-6.75575,2.16394-9.43994,4.45607
		c-0.36192,0.30914-0.67105,0.42224-1.19884,0.69366V97.43789c15.36632,8.1657,30.61951,16.26353,46.02351,24.45187v-24.4142
		c15.20798,8.08279,30.25007,16.08262,45.48066,24.17291V97.49064l45.51833,24.20308V97.28709
		c0.49765,0.21865,0.80679,0.33928,1.09329,0.49008c14.59724,7.75854,29.18692,15.51709,43.78416,23.27567
		c0.48254,0.25636,0.85956,0.47501,0.85956,1.18375c-0.03017,11.18922-0.02263,22.38596-0.02263,33.5827
		c0,0.15834-0.02261,0.30914-0.04524,0.61829c-0.3996-0.14328-0.72383-0.27899-1.06311-0.39209
		c-3.35526-1.10081-6.69543-2.23181-10.06577-3.27986c-0.69368-0.21111-0.96512-0.41467-0.96512-1.18376
		c0.04524-4.52394,0.01511-9.0554,0.03017-13.58688c0.00754-0.64842-0.08295-0.96509-0.8671-0.96509
		c-14.00157,0.0226-28.00317,0.01506-42.00475,0.0226c-0.12816,0-0.24883,0.01509-0.54286,0.0377v1.09329
		c0,7.59267-0.00754,15.1778,0.00754,22.77048c0.00754,0.93495-0.28653,1.47781-1.44014,2.08101
		c-3.4608,1.82465-6.43907,4.45609-8.45975,7.81133c-1.59846,2.6465-1.25916,2.12625-2.23935,3.31757v-37.05859h-45.39771V169.03671
		z"/>
	<path d="M217.06056,261.01212c0-1.28931,0.01508-2.46555-0.00754-3.63422c-0.00754-0.65598-0.54289-0.47501-0.91988-0.49765
		c-2.95563-0.21112-5.92635-0.2865-8.85938-0.65598c-2.27702-0.2865-4.51639-0.93494-6.92162-1.45518
		c1.53813-2.58618,2.47308-4.2148,4.15448-6.86885c0.8671-1.35718,1.70403-2.75206,2.44293-4.18463
		c0.37698-0.72383,0.73891-0.86708,1.46274-0.74646c12.33525,2.07349,23.26057-0.97264,32.42154-9.48518
		c14.40877-13.39085,15.9846-35.18867,3.8152-50.60023c-0.39963-0.49763-0.44487-1.18376-0.1131-1.72662
		c1.99049-3.22708,3.92075-6.49185,5.87354-9.74155c0.18098-0.29405,0.36949-0.58812,0.63341-1.01036
		c0.39204,0.38455,0.73891,0.69368,1.04799,1.03297c7.5173,8.01491,12.04123,17.46996,13.42859,28.35754
		c0.30914,2.48064,0.05276,5.03665,0.09802,7.55498c0.21866,10.58601-3.37036,19.91286-9.35703,28.44801
		c-2.51833,3.59654-5.67754,6.62758-8.70857,9.77171c-5.19499,5.39102-10.38243,10.80467-15.62267,16.15047
		c-0.87463,0.88968-1.99052,1.5683-3.05363,2.24689c-6.33351,4.05646-12.68213,8.0903-19.02318,12.12415
		c-0.5127,0.32422-1.01035,0.67105-1.53059,0.97263c-2.17148,1.24408-3.92075,2.8501-5.50412,4.84818
		c-4.18465,5.293-9.77171,7.7887-16.59531,8.06769c-9.53043,0.3996-20.84781-7.26846-21.55656-20.35019
		c-0.06786-1.24408,0.10555-3.27985,0.29407-4.51639c0.3242-2.11871,0.15079-4.19974,0.13573-6.30334
		c-0.04524-5.35333-0.16591-10.70667-0.26393-16.05998c-0.09045-4.84062-0.18848-9.68877-0.27896-14.52939
		c0-0.18849,0-0.377,0.10556-0.64088c4.61441,10.31458,11.55865,18.6537,21.05891,24.76102
		C195.2552,258.47119,205.72812,261.30618,217.06056,261.01212"/>
	<path d="M99.32662,254.6967c-5.25529,1.62108-10.60108,2.17903-16.15044,2.1338v4.09415
		c11.07609,0.28653,21.36053-2.42786,30.76276-8.3165c9.37209-5.87358,16.33894-13.90356,20.976-23.96179
		c0.08292,0.01508,0.16588,0.02261,0.24879,0.03017c0,0.50517,0.00757,1.01035,0,1.52306
		c-0.10556,6.05453-0.20358,12.10153-0.3242,18.15607c-0.08293,4.33543-0.24879,8.66333-0.25636,12.99878
		c0,1.14606,0.49011,2.29211,0.70876,3.44574c2.2469,11.94318-6.43153,23.87131-18.50288,25.04752
		c-8.93478,0.8671-16.05998-2.4957-21.02124-10.13361c-0.32421-0.51273-0.87464-0.91986-1.39489-1.25919
		c-7.96967-5.09695-15.98457-10.13361-23.91653-15.29089c-1.51552-0.98773-2.80486-2.3826-4.09418-3.69455
		c-5.82833-5.92635-11.62652-11.89041-17.43221-17.84692c-7.93952-8.13556-12.73491-17.82433-14.15994-29.11154
		c-1.79449-14.22023,1.91515-26.91742,10.75188-38.16695c0.27146-0.34683,0.5655-0.67105,0.93495-1.10083
		c0.4147,0.55043,0.68613,0.82941,0.90481,1.40244c1.07819,2.81238,2.59371,5.4438,4.67473,7.61528
		c1.77942,1.86237,2.20918,2.39769,1.49289,3.49852c-9.38716,14.5143-7.81886,33.2057,3.96599,45.81993
		c7.88675,8.45222,17.74137,12.36543,29.27741,12.01106c1.42503-0.04523,2.84256-0.34683,4.27513-0.45239
		c0.36192-0.02263,0.92741,0.12817,1.10836,0.39207c2.35999,3.55882,4.66719,7.14781,6.98193,10.72926
		C99.20599,254.36494,99.23614,254.48558,99.32662,254.6967"/>
</g>
<g>
	<path d="M96.01659,242.15334c15.9921-6.20534,25.59795-17.40962,26.29161-34.67596
		c0.63335-15.73578-6.77836-27.47539-20.66686-34.85695c-7.49465-3.9886-15.60758-4.90848-23.96177-3.25723
		c-8.34668,1.65123-15.28337,5.79817-21.04385,12.20709c-2.49572-3.8378-4.91602-7.56252-7.44941-11.46065
		c1.80956-1.52306,3.52113-3.09135,5.36839-4.4787c8.45977-6.33351,17.96756-9.93756,28.5385-10.0733
		c21.25497-0.25635,36.9681,9.20622,47.0791,27.82222c3.73981,6.88393,5.37595,14.41629,5.42873,22.25023
		c0.14326,21.91847-13.17974,39.76541-31.283,47.343c-1.47784,0.61827-1.61355-0.14325-3.4382-4.40331
		c-0.84447-1.96791-2.25443-3.59653-3.8755-5.00648C96.58961,243.20891,96.27294,242.59065,96.01659,242.15334"/>
	<path d="M241.21536,179.00446c-10.18642-9.14589-22.06929-12.50113-35.76173-9.06294
		c-8.24109,2.07346-15.4417,7.09503-20.35771,14.01665c-7.6756,10.80467-9.42487,22.5443-5.08189,34.7363
		c4.04892,11.38525,12.1317,18.89499,23.46416,23.0947c-0.30914,0.58058-0.46748,0.97264-0.91232,1.44012
		c-1.4552,1.52306-2.72943,3.21953-3.6116,5.12714c-1.92268,4.14694-1.84727,5.24022-3.16678,4.64458
		c-16.85921-7.60022-27.30948-20.3728-30.45361-38.64951c-3.85291-22.35579,7.88673-43.73894,27.32458-53.46539
		c17.862-8.93477,39.13203-6.52954,54.71701,6.13747c0.4373,0.34685,0.53532,0.97264,0.24126,1.44768
		c-2.0056,3.25722-3.95088,6.54462-5.92635,9.81694C241.56219,178.50682,241.41141,178.7104,241.21536,179.00446"/>
	<path d="M133.47102,109.70756c-2.06592-1.09328-3.86043-2.03577-5.65491-2.98579c-4.04891-2.14133-8.08276-4.32037-12.1543-6.43153
		c-0.76154-0.39207-1.01791-0.85954-0.98773-1.71157c0.36192-9.38716,0.7012-18.78185,1.02544-28.16904
		c0.22619-6.46168,0.42223-12.93089,0.64842-19.3926c0.2865-7.92442,0.59564-15.8564,0.87463-23.78082
		c0.18848-5.2553,0.35435-10.51062,0.53533-15.75838c0.01507-0.47501,0.08292-0.94249,0.12816-1.47781h12.10909
		C131.1563,43.17552,132.30989,76.29829,133.47102,109.70756"/>
	<path d="M176.87216,23.5341c1.01035,28.88534,2.02071,57.68021,3.03104,86.6334c-0.47501-0.21865-0.79167-0.33931-1.08574-0.50518
		c-5.9339-3.14413-11.86781-6.31087-17.80923-9.44747c-0.61075-0.31668-0.82939-0.65599-0.79922-1.38736
		c0.33928-8.82169,0.61072-17.64336,0.91986-26.46502c0.42223-11.90551,0.85956-23.81853,1.28178-35.72404
		c0.14328-4.04892,0.28651-8.09029,0.3996-12.13924c0.01511-0.76151,0.22623-1.0028,1.05562-0.99527
		c3.95088,0.06034,7.90935,0.03017,11.86023,0.03017H176.87216z"/>
	<path d="M139.66806,209.66393c6.98193,5.33072,13.78293,5.25531,20.68947-0.36191c0,1.50043-0.01506,2.85008,0.00754,4.20726
		c0.12067,7.87166,0.24129,15.74329,0.38455,23.61494c0.08293,4.77275,0.19601,9.55305,0.32422,14.33334
		c0.0226,0.79169-0.16588,1.34964-0.82187,1.86989c-6.22041,4.8934-15.17027,4.58426-20.94582-0.73891
		c-0.40717-0.38454-0.61829-0.93494-0.60318-1.4929c0.1131-5.4061,0.18848-10.81975,0.29404-16.22585
		c0.14326-7.55498,0.28653-15.1024,0.45241-22.64984C139.46449,211.39056,139.58511,210.56873,139.66806,209.66393"/>
	<path d="M161.00296,197.60689c-2.80486-3.52113-6.43907-5.18745-10.8273-5.28548
		c-4.34297-0.09802-8.03751,1.37227-11.06854,4.68228c-0.15834-0.45239-0.2639-0.65598-0.27901-1.03296
		c-0.0603-1.68141-0.36945-3.34772-1.07819-4.87079c-0.71629-1.53059-0.72383-1.96791,0.03772-2.48816
		c7.16287-4.81044,17.4473-4.67473,24.52725,0.30913c0.47502,0.33177,0.67107,0.94249,0.51273,1.50046
		C162.17917,192.74365,161.62877,195.0961,161.00296,197.60689"/>
</g>
</svg>
