<?xml version="1.0" encoding="utf-8"?>
<svg version="1.1" id="Layer_1" xmlns="http://www.w3.org/2000/svg" xmlns:xlink="http://www.w3.org/1999/xlink" x="0px" y="0px"
	 viewBox="0 0 300 300" style="enable-background:new 0 0 300 300;" xml:space="preserve">
<g>
	<polygon fill="currentColor" points="65.21667,235.44153 69.55511,235.44153 67.4176,228.38135 	"/>
	<path fill="currentColor" d="M263.79956,226.40649h-3.72321v4.63068h3.72321c1.97736,0,2.91522-0.97089,2.91522-2.29767
		C266.71478,227.41046,265.77692,226.40649,263.79956,226.40649z"/>
	<path fill="currentColor" d="M10,10v279.99994h280V10H10z M24.85254,24.87549h41.08844l16.32916,60.7597l16.07239-60.7597h43.57928V59.6076
		l27.46082-34.73212h38.94098l38.17859,64.40167V24.87549h28.64526v98.45276h-43.87909l-45.7674-77.36603l-15.66583,18.60132
		l34.88965,58.76471h-33.00635l-20.62439-36.35107l-9.15192,10.94873v25.40234H113.6806V56.10541l-19.03833,67.22284H69.48895
		L50.20404,56.45367v66.87457h-25.3515V24.87549z M214.34204,244.41309h-6.0564l-4.72736-16.16144v16.16144h-6.08942v-23.47845
		h9.9093l3.98523,14.60602l3.9165-14.60602h9.81262v23.47845h-6.08698v-16.25806L214.34204,244.41309z M180.51971,229.71057v5.83008
		h-11.20563v3.04224h11.9502v5.8302h-18.71814v-23.47845h18.5885v5.79718h-11.82056v2.97876H180.51971z M142.70197,235.54065
		v8.87244h-6.76801v-23.47845h6.76801v8.77594h8.06421v-8.77594h6.76819v23.47845h-6.76819v-8.87244H142.70197z
		 M104.14484,220.93463v23.47845h-8.35382l-7.18994-14.96185v14.96185h-6.24963v-23.47845h8.32349l7.2204,14.92883v-14.92883
		H104.14484z M24.8703,220.93463h9.90936l3.98499,14.60602l3.91901-14.60602h9.81024v23.47845H46.4071v-16.25806l-4.66376,16.25806
		h-6.0564l-4.72723-16.16144v16.16144H24.8703V220.93463z M38.96033,275.13995l-5.05243-8.70972l-2.26703,2.6532v6.05652h-6.76801
		v-23.47852h6.76801v8.35657l6.73499-8.35657h8.19379l-8.12775,9.45697l8.48358,14.02155H38.96033z M70.17517,264.74512
		c0,7.31958-2.849,10.81677-10.52441,10.81677c-7.383,0-10.65393-2.78564-10.65393-10.59058v-13.30988h6.76801v13.76483
		c0,2.97864,0.90723,4.46796,3.81976,4.46796c2.91522,0,3.82251-1.71545,3.82251-4.46796v-13.76483h6.76807V264.74512z
		 M71.11041,240.49396h-7.48218l-1.19708,3.91913h-7.2229l8.5191-23.47845h7.4162l8.51654,23.47845h-7.35266L71.11041,240.49396z
		 M96.54065,275.13995h-8.35638l-7.18994-14.96185v14.96185h-6.24951v-23.47852h8.32343l7.2229,14.92889v-14.92889h6.24951
		V275.13995z M110.91296,275.56189c-4.95593,0-8.64618-1.45642-11.27161-3.36749l3.33698-5.47443
		c1.97479,1.4588,5.11603,2.75232,8.16077,2.75232c1.87823,0,3.07782-0.35583,3.07782-1.3266
		c0-1.00391-1.29614-1.52252-3.49969-1.97485l-2.65588-0.55145c-3.69025-0.74469-7.35004-2.55933-7.35004-7.0271
		c0-5.08563,5.01953-7.48242,10.00592-7.48242c4.14508,0,7.35254,0.97351,10.29822,2.59235l-2.84912,5.60162
		c-1.71558-1.06757-4.85675-2.16785-7.67529-2.16785c-1.78168,0-2.849,0.41931-2.849,1.3266
		c0,0.74457,0.61499,1.1665,1.94177,1.4563l3.46649,0.71417c4.37146,0.93768,8.12769,2.33051,8.12769,6.96118
		C121.17798,272.90588,116.61346,275.56189,110.91296,275.56189z M115.39362,229.45123v14.96185h-6.25214v-23.47845h8.32349
		l7.2229,14.92883v-14.92883h6.24951v23.47845h-8.35382L115.39362,229.45123z M143.96771,257.45862h-7.02734v17.68134h-6.76788
		v-17.68134h-6.99677v-5.79718h20.79199V257.45862z M160.86108,275.13995h-7.4187l-7.83539-23.47852h7.35004l4.21136,15.48035
		l4.30774-15.48035h7.18738L160.86108,275.13995z M189.88007,275.13995h-18.71832v-23.47852h18.58862v5.79718h-11.82056v2.97864
		h11.20551v5.83026h-11.20551v3.04468h11.95026V275.13995z M192.53046,244.41309h-6.76764v-23.47803h6.76764V244.41309z
		 M208.41779,275.13995l-4.69678-8.25739h-2.78546v8.25739h-6.76813v-23.47852h9.71619c6.1532,0,10.75067,1.48932,10.75067,7.54572
		c0,3.36755-1.74854,5.37524-4.17572,6.47833l5.56836,9.45447H208.41779z M237.55341,275.13995h-18.71814v-23.47852h18.58862
		v5.79718h-11.82037v2.97864h11.20532v5.83026h-11.20532v3.04468h11.94989V275.13995z M248.62762,275.13995h-6.76868v-23.47821
		h6.76868V275.13995z M248.82513,244.41309h-18.71814v-23.47845h18.58844v5.79718h-11.82056v2.97876h11.20569v5.83008h-11.20569
		v3.04224h11.95026V244.41309z M275.16528,275.13995h-8.354l-7.18988-14.96185v14.96185h-6.24951v-23.47852h8.32086
		l7.22302,14.92889v-14.92889h6.24951V275.13995z M267.55597,244.41309l-4.69427-8.25739h-2.78534v8.25739h-6.76807v-23.47845
		h9.71368c6.15302,0,10.75299,1.48944,10.75299,7.54584c0,3.36755-1.74854,5.37524-4.17822,6.47571l5.57104,9.45691H267.55597z"/>
	<path fill="currentColor" d="M204.66138,257.13599h-3.72583v4.63055h3.72583c1.97467,0,2.91516-0.97339,2.91516-2.29999
		C207.57654,258.13977,206.63605,257.13599,204.66138,257.13599z"/>
</g>
</svg>
