<?xml version="1.0" encoding="utf-8"?>
<!-- Generator: Adobe Illustrator 26.4.1, SVG Export Plug-In . SVG Version: 6.00 Build 0)  -->
<svg version="1.1" id="Layer_1" xmlns="http://www.w3.org/2000/svg" xmlns:xlink="http://www.w3.org/1999/xlink" x="0px" y="0px"
	 viewBox="0 0 300 300" style="enable-background:new 0 0 300 300;" xml:space="preserve">
<style type="text/css">
	.st0{fill:#181716;}
</style>
<polyline class="st0" points="50.20405,123.32825 24.85253,123.32825 24.85253,24.87553 65.94101,24.87553 82.27014,85.63522 
	98.34254,24.87553 141.9218,24.87553 141.9218,59.60761 169.38264,24.87553 208.32362,24.87553 246.50218,89.27715 
	246.50218,24.87553 275.14746,24.87553 275.14746,123.32825 231.26837,123.32825 185.50098,45.96223 169.83514,64.56357 
	204.72482,123.32825 171.71846,123.32825 151.09402,86.97717 141.94212,97.92593 141.94212,123.32825 113.68061,123.32825 
	113.68061,56.10544 94.64229,123.32825 69.48894,123.32825 50.20405,56.45369 "/>
<path class="st0" d="M14.93052,285.06958h270.13898V14.93056H14.93052V285.06958z M290,289.99997H10V10.00004h280V289.99997z"/>
<path class="st0" d="M275.16531,275.13998v-23.47852h-6.24954v14.92886l-7.22305-14.92886h-8.32085v23.47852h6.24953V260.1781
	l7.18985,14.96188 M241.85895,275.13998h6.76871v-23.4782h-6.76871V275.13998z M218.83525,275.13998h18.71815v-5.82776H225.6035
	v-3.04471h11.20532v-5.83023H225.6035v-2.97864h11.82037v-5.79718h-18.58862V275.13998z M204.66138,257.13602
	c1.97469,0,2.91519,1.00378,2.91519,2.33054c0,1.3266-0.94051,2.29999-2.91519,2.29999h-3.72586v-4.63052H204.66138z
	 M208.41779,275.13998h7.60916l-5.56839-9.45447c2.42719-1.10309,4.1757-3.11081,4.1757-6.47833
	c0-6.0564-4.59747-7.54572-10.75067-7.54572h-9.71616v23.47852h6.76808v-8.25742h2.78551L208.41779,275.13998z M171.16173,275.13998
	h18.71831v-5.82776h-11.95021v-3.04471h11.20547v-5.83023h-11.20547v-2.97864h11.82054v-5.79718h-18.58864V275.13998z
	 M145.60701,251.66147l7.8354,23.47852h7.41866l7.80244-23.47852h-7.18738l-4.30772,15.48032l-4.21138-15.48032H145.60701z
	 M130.17245,275.13998h6.76794v-17.68134h7.0273v-5.79718h-20.79197v5.79718h6.99673V275.13998z M100.71132,258.59229
	c0,4.4678,3.65977,6.28241,7.35003,7.02713l2.65591,0.55145c2.20349,0.45233,3.49969,0.97092,3.49969,1.97485
	c0,0.97076-1.19963,1.3266-3.07784,1.3266c-3.04472,0-6.186-1.29355-8.16077-2.75232l-3.33697,5.4744
	c2.62543,1.91107,6.31568,3.36752,11.27157,3.36752c5.70054,0,10.26506-2.65601,10.26506-7.96765
	c0-4.63068-3.75626-6.0235-8.12773-6.96121l-3.46648-0.71417c-1.32675-0.28976-1.94173-0.7117-1.94173-1.45627
	c0-0.90732,1.06731-1.3266,2.84895-1.3266c2.81855,0,5.95975,1.10025,7.67532,2.16782l2.84911-5.60159
	c-2.94568-1.61884-6.15311-2.59238-10.29818-2.59238C105.7308,251.10986,100.71132,253.50664,100.71132,258.59229
	 M96.54066,275.13998v-23.47852h-6.24952v14.92886l-7.2229-14.92886h-8.32341v23.47852h6.24952V260.1781l7.18994,14.96188H96.54066z
	 M48.99682,251.66147v13.30988c0,7.8049,3.27096,10.59058,10.65395,10.59058c7.6754,0,10.52443-3.49722,10.52443-10.81677v-13.08368
	H63.4071v13.76483c0,2.75247-0.9073,4.46796-3.82249,4.46796c-2.91255,0-3.81978-1.48932-3.81978-4.46796v-13.76483H48.99682z
	 M31.64087,251.66147h-6.76801v23.47852h6.76801v-6.05655l2.26702-2.6532l5.05245,8.70975h7.96516l-8.48357-14.02155
	l8.12772-9.45697h-8.19381l-6.73497,8.35654V251.66147z"/>
<path class="st0" d="M263.79959,226.40652c1.97733,0,2.91519,1.00394,2.91519,2.33302c0,1.32675-0.93787,2.29765-2.91519,2.29765
	h-3.72324v-4.63068 M267.556,244.41313h7.61179l-5.57101-9.45695c2.42966-1.10043,4.17819-3.10817,4.17819-6.47569
	c0-6.05638-4.59998-7.54585-10.75299-7.54585h-9.7137v23.4785h6.76808v-8.2574h2.78537L267.556,244.41313z M230.10698,244.41313
	h18.71814v-5.83023h-11.95021v-3.04224h11.20563v-5.83006h-11.20563v-2.97879h11.82054v-5.79718h-18.58847V244.41313z
	 M214.34201,244.41313l4.66356-16.25809v16.25809h6.08696v-23.4785h-9.81265l-3.91649,14.60603l-3.98523-14.60603h-9.90929v23.4785
	h6.08943v-16.16145l4.72733,16.16145H214.34201z M185.76282,244.41313h6.76762v-23.47804h-6.76762V244.41313z M162.54616,244.41313
	h18.71815v-5.83023h-11.95023v-3.04224h11.20564v-5.83006h-11.20564v-2.97879h11.82054v-5.79718h-18.58847V244.41313z
	 M150.76617,220.93463v8.77597h-8.06419v-8.77597h-6.76801v23.4785h6.76801v-8.87247h8.06419v8.87247h6.76817v-23.4785H150.76617z
	 M130.93736,244.41313v-23.4785h-6.24952v14.92885l-7.2229-14.92885h-8.32349v23.4785h6.25215v-14.9619l7.18994,14.9619H130.93736z
	 M104.14485,244.41313v-23.4785h-6.24952v14.92885l-7.22042-14.92885h-8.32349v23.4785h6.24967v-14.9619l7.18994,14.9619H104.14485z
	 M67.4176,228.38136l2.1375,7.06018h-4.33843L67.4176,228.38136z M55.20826,244.41313h7.2229l1.19707-3.91913h7.48219
	l1.19699,3.91913h7.35266l-8.51653-23.4785h-7.41619L55.20826,244.41313z M41.74336,244.41313l4.66372-16.25809v16.25809h6.0868
	v-23.4785h-9.81025l-3.91898,14.60603l-3.98498-14.60603h-9.90937v23.4785h6.08943v-16.16145l4.72724,16.16145H41.74336z"/>
</svg>
